<svg xmlns="http://www.w3.org/2000/svg" xmlns:xlink="http://www.w3.org/1999/xlink" contentStyleType="text/css" data-diagram-type="DESCRIPTION" height="387px" preserveAspectRatio="none" style="width:1076px;height:387px;background:#FFFFFF;" version="1.1" viewBox="0 0 1076 387" width="1076px" zoomAndPan="magnify"><defs/><g><!--cluster Escape: Oh Dear Dragon!--><g class="cluster" data-entity="Escape. Oh Dear Dragon." data-source-line="16" data-uid="ent0003" id="cluster_Escape. Oh Dear Dragon."><rect fill="#C3F9CB" height="351" rx="2.5" ry="2.5" style="stroke:#334155;stroke-width:1;" width="963" x="107.5" y="7"/><text fill="#000000" font-family="sans-serif" font-size="14" font-weight="bold" lengthAdjust="spacing" textLength="198.6797" x="489.6602" y="21.9951">Escape: Oh Dear Dragon!</text></g><!--entity SNG--><g class="entity" data-entity="SNG" data-source-line="17" data-uid="ent0004" id="entity_SNG"><ellipse cx="197.0998" cy="65.12" fill="#F1FFF1" rx="73.5998" ry="17.12" style="stroke:#1CC9BE;stroke-width:0.5;"/><text fill="#000000" font-family="sans-serif" font-size="14" lengthAdjust="spacing" textLength="115.3154" x="139.4421" y="69.7684">Start New Game</text></g><!--entity VT--><g class="entity" data-entity="VT" data-source-line="18" data-uid="ent0005" id="entity_VT"><ellipse cx="196.7894" cy="132.7579" fill="#F1FFF1" rx="64.2894" ry="15.2579" style="stroke:#1CC9BE;stroke-width:0.5;"/><text fill="#000000" font-family="sans-serif" font-size="14" lengthAdjust="spacing" textLength="91.5742" x="151.0022" y="137.4063">View Tutorial</text></g><!--entity SP--><g class="entity" data-entity="SP" data-source-line="19" data-uid="ent0006" id="entity_SP"><ellipse cx="476.1272" cy="129.0254" fill="#F1FFF1" rx="80.6272" ry="18.5254" style="stroke:#1CC9BE;stroke-width:0.5;"/><text fill="#000000" font-family="sans-serif" font-size="14" lengthAdjust="spacing" textLength="132.1523" x="410.0511" y="133.6739">Select Playthrough</text></g><!--entity SD--><g class="entity" data-entity="SD" data-source-line="20" data-uid="ent0007" id="entity_SD"><ellipse cx="476.0635" cy="59.2127" fill="#F1FFF1" rx="71.5635" ry="16.7127" style="stroke:#1CC9BE;stroke-width:0.5;"/><text fill="#000000" font-family="sans-serif" font-size="14" lengthAdjust="spacing" textLength="110.291" x="420.918" y="63.8611">Select Difficulty</text></g><!--entity PL--><g class="entity" data-entity="PL" data-source-line="22" data-uid="ent0008" id="entity_PL"><ellipse cx="732.5969" cy="250.0236" fill="#F1FFF1" rx="53.0969" ry="14.5236" style="stroke:#1CC9BE;stroke-width:0.5;"/><text fill="#000000" font-family="sans-serif" font-size="14" lengthAdjust="spacing" textLength="70.8477" x="697.173" y="254.6721">Play Level</text></g><!--entity PG--><g class="entity" data-entity="PG" data-source-line="23" data-uid="ent0009" id="entity_PG"><ellipse cx="475.9406" cy="197.9881" fill="#F1FFF1" rx="62.9406" ry="14.9881" style="stroke:#1CC9BE;stroke-width:0.5;"/><text fill="#000000" font-family="sans-serif" font-size="14" lengthAdjust="spacing" textLength="87.9307" x="431.9753" y="202.6366">Pause Game</text></g><!--entity VN--><g class="entity" data-entity="VN" data-source-line="24" data-uid="ent0010" id="entity_VN"><ellipse cx="196.9478" cy="198.0236" fill="#F1FFF1" rx="58.4478" ry="14.5236" style="stroke:#1CC9BE;stroke-width:0.5;"/><text fill="#000000" font-family="sans-serif" font-size="14" lengthAdjust="spacing" textLength="78.415" x="157.7403" y="202.6721">View Notes</text></g><!--entity ETT--><g class="entity" data-entity="ETT" data-source-line="25" data-uid="ent0011" id="entity_ETT"><ellipse cx="196.9967" cy="262.0236" fill="#F1FFF1" rx="59.4967" ry="14.5236" style="stroke:#1CC9BE;stroke-width:0.5;"/><text fill="#000000" font-family="sans-serif" font-size="14" lengthAdjust="spacing" textLength="79.8984" x="157.0475" y="266.6721">Exit to Title</text></g><!--entity UP--><g class="entity" data-entity="UP" data-source-line="26" data-uid="ent0012" id="entity_UP"><ellipse cx="475.9352" cy="263.0236" fill="#F1FFF1" rx="53.4352" ry="14.5236" style="stroke:#1CC9BE;stroke-width:0.5;"/><text fill="#000000" font-family="sans-serif" font-size="14" lengthAdjust="spacing" textLength="71.3262" x="440.2721" y="267.6721">Use Portal</text></g><!--entity SPR--><g class="entity" data-entity="SPR" data-source-line="27" data-uid="ent0013" id="entity_SPR"><ellipse cx="476.0438" cy="327.0236" fill="#F1FFF1" rx="32.5438" ry="14.5236" style="stroke:#1CC9BE;stroke-width:0.5;"/><text fill="#000000" font-family="sans-serif" font-size="14" lengthAdjust="spacing" textLength="41.7813" x="455.1532" y="331.6721">Sprint</text></g><!--entity CI--><g class="entity" data-entity="CI" data-source-line="29" data-uid="ent0014" id="entity_CI"><ellipse cx="982.274" cy="321.7548" fill="#F1FFF1" rx="64.274" ry="15.2548" style="stroke:#1CC9BE;stroke-width:0.5;"/><text fill="#000000" font-family="sans-serif" font-size="14" lengthAdjust="spacing" textLength="91.5332" x="936.5074" y="326.4032">Collect Items</text></g><!--entity AD--><g class="entity" data-entity="AD" data-source-line="30" data-uid="ent0015" id="entity_AD"><ellipse cx="982.6173" cy="253.8235" fill="#F1FFF1" rx="72.1173" ry="16.8235" style="stroke:#1CC9BE;stroke-width:0.5;"/><text fill="#000000" font-family="sans-serif" font-size="14" lengthAdjust="spacing" textLength="111.665" x="926.7847" y="258.4719">Avoid Detection</text></g><!--entity RE--><g class="entity" data-entity="RE" data-source-line="31" data-uid="ent0016" id="entity_RE"><ellipse cx="982.6442" cy="187.0236" fill="#F1FFF1" rx="55.6442" ry="14.5236" style="stroke:#1CC9BE;stroke-width:0.5;"/><text fill="#000000" font-family="sans-serif" font-size="14" lengthAdjust="spacing" textLength="74.4502" x="945.4191" y="191.6721">Reach Exit</text></g><!--entity NAV--><g class="entity" data-entity="NAV" data-source-line="32" data-uid="ent0017" id="entity_NAV"><ellipse cx="982.4027" cy="123.0236" fill="#F1FFF1" rx="47.4027" ry="14.5236" style="stroke:#1CC9BE;stroke-width:0.5;"/><text fill="#000000" font-family="sans-serif" font-size="14" lengthAdjust="spacing" textLength="62.7949" x="951.0053" y="127.6721">Navigate</text></g><!--entity Player--><g class="entity" data-entity="Player" data-source-line="14" data-uid="ent0002" id="entity_Player"><ellipse cx="33" cy="111" fill="#F1F1F1" rx="16" ry="16" style="stroke:#181818;stroke-width:0.5;"/><path d="M33,131 C37,131 40,131 44,127 C52,127 60,135 60,143 L60,147 C60,151 56,155 52,155 L14,155 C10,155 6,151 6,147 L6,143 C6,135 14,127 22,127 C26,131 29,131 33,131" fill="#F1F1F1" style="stroke:#181818;stroke-width:0.5;"/><text fill="#000000" font-family="sans-serif" font-size="14" lengthAdjust="spacing" textLength="43.5654" x="11.2173" y="168.4951">Player</text></g><!--link Player to SNG--><g class="link" data-entity-1="Player" data-entity-2="SNG" data-source-line="36" data-uid="lnk18" id="link_Player_SNG"><path d="M60.75,118.62 C72.48,112.55 86.52,105.6 99.5,100 C117.17,92.38 131.45,86.9412 148.59,80.9112" fill="none" id="Player-to-SNG" style="stroke:#181818;stroke-width:1;"/><polygon fill="#181818" points="154.25,78.92,144.4326,78.1335,149.5334,80.5793,147.0876,85.6801,154.25,78.92" style="stroke:#181818;stroke-width:1;"/></g><!--link Player to VT--><g class="link" data-entity-1="Player" data-entity-2="VT" data-source-line="37" data-uid="lnk19" id="link_Player_VT"><path d="M60.75,133 C80.25,133 101.52,133 126.46,133" fill="none" id="Player-to-VT" style="stroke:#181818;stroke-width:1;"/><polygon fill="#181818" points="132.46,133,123.46,129,127.46,133,123.46,137,132.46,133" style="stroke:#181818;stroke-width:1;"/></g><!--link Player to PL--><g class="link" data-entity-1="Player" data-entity-2="PL" data-source-line="38" data-uid="lnk20" id="link_Player_PL"><path d="M39.28,171.51 C46.43,208.46 62.81,263.08 99.5,294 C202.49,380.8 261.6,344.47 395.5,359 C466.64,366.72 487.11,376.47 556.5,359 C602.01,347.54 609.7,333.87 649.5,309 C672.4,294.69 692.6575,279.8764 708.9575,267.4564" fill="none" id="Player-to-PL" style="stroke:#181818;stroke-width:1;"/><polygon fill="#181818" points="713.73,263.82,704.147,266.093,709.753,266.8504,708.9956,272.4563,713.73,263.82" style="stroke:#181818;stroke-width:1;"/></g><!--link SNG to SP--><g class="link" data-entity-1="SNG" data-entity-2="SP" data-source-line="42" data-uid="lnk21" id="link_SNG_SP"><path d="M249.78,76.96 C297.85,88.07 363.4041,103.219 412.8641,114.649" fill="none" id="SNG-to-SP" style="stroke:#181818;stroke-width:1;stroke-dasharray:7,7;"/><polygon fill="#181818" points="418.71,116,410.8418,110.0763,413.8384,114.8742,409.0405,117.8708,418.71,116" style="stroke:#181818;stroke-width:1;"/><text fill="#000000" font-family="sans-serif" font-size="13" lengthAdjust="spacing" textLength="63.0068" x="301.5" y="86.0669">&#171;include&#187;</text></g><!--link SNG to SD--><g class="link" data-entity-1="SNG" data-entity-2="SD" data-source-line="43" data-uid="lnk22" id="link_SNG_SD"><path d="M270.42,63.43 C311.77,62.54 357.4014,61.5501 398.4414,60.6601" fill="none" id="SNG-to-SD" style="stroke:#181818;stroke-width:1;stroke-dasharray:7,7;"/><polygon fill="#181818" points="404.44,60.53,395.3554,56.7261,399.4412,60.6384,395.5288,64.7242,404.44,60.53" style="stroke:#181818;stroke-width:1;"/><text fill="#000000" font-family="sans-serif" font-size="13" lengthAdjust="spacing" textLength="63.0068" x="301.5" y="58.0669">&#171;include&#187;</text></g><!--link VN to PG--><g class="link" data-entity-1="VN" data-entity-2="PG" data-source-line="47" data-uid="lnk23" id="link_VN_PG"><path d="M255.73,198 C301.55,198 359.51,198 406.52,198" fill="none" id="VN-to-PG" style="stroke:#181818;stroke-width:1;stroke-dasharray:7,7;"/><polygon fill="#181818" points="412.52,198,403.52,194,407.52,198,403.52,202,412.52,198" style="stroke:#181818;stroke-width:1;"/><text fill="#000000" font-family="sans-serif" font-size="13" lengthAdjust="spacing" textLength="61.1851" x="302.5" y="194.0669">&#171;extend&#187;</text></g><!--link ETT to PG--><g class="link" data-entity-1="ETT" data-entity-2="PG" data-source-line="48" data-uid="lnk24" id="link_ETT_PG"><path d="M240.67,252.14 C291.97,240.29 371.814,221.8409 424.134,209.7509" fill="none" id="ETT-to-PG" style="stroke:#181818;stroke-width:1;stroke-dasharray:7,7;"/><polygon fill="#181818" points="429.98,208.4,420.3105,206.529,425.1084,209.5257,422.1117,214.3236,429.98,208.4" style="stroke:#181818;stroke-width:1;"/><text fill="#000000" font-family="sans-serif" font-size="13" lengthAdjust="spacing" textLength="61.1851" x="302.5" y="221.0669">&#171;extend&#187;</text></g><!--link PG to PL--><g class="link" data-entity-1="PG" data-entity-2="PL" data-source-line="53" data-uid="lnk25" id="link_PG_PL"><path d="M525.76,207.32 C560.34,214 607.81,223.32 649.5,232 C663.06,234.82 671.9808,236.7378 685.2208,239.6578" fill="none" id="PG-to-PL" style="stroke:#181818;stroke-width:1;stroke-dasharray:7,7;"/><polygon fill="#181818" points="691.08,240.95,683.1527,235.1056,686.1973,239.8732,681.4297,242.9178,691.08,240.95" style="stroke:#181818;stroke-width:1;"/><text fill="#000000" font-family="sans-serif" font-size="13" lengthAdjust="spacing" textLength="61.1851" x="587.5" y="216.0669">&#171;extend&#187;</text></g><!--link UP to PL--><g class="link" data-entity-1="UP" data-entity-2="PL" data-source-line="54" data-uid="lnk26" id="link_UP_PL"><path d="M528.81,260.35 C572.99,258.1 630.1678,255.1761 674.2078,252.9261" fill="none" id="UP-to-PL" style="stroke:#181818;stroke-width:1;stroke-dasharray:7,7;"/><polygon fill="#181818" points="680.2,252.62,671.0076,249.0844,675.2065,252.8751,671.4158,257.074,680.2,252.62" style="stroke:#181818;stroke-width:1;"/><text fill="#000000" font-family="sans-serif" font-size="13" lengthAdjust="spacing" textLength="61.1851" x="587.5" y="251.0669">&#171;extend&#187;</text></g><!--link SPR to PL--><g class="link" data-entity-1="SPR" data-entity-2="PL" data-source-line="55" data-uid="lnk27" id="link_SPR_PL"><path d="M505.72,320.9 C540.23,313.3 599.71,299.29 649.5,283 C667.88,276.99 682.5048,271.2393 698.2348,264.5793" fill="none" id="SPR-to-PL" style="stroke:#181818;stroke-width:1;stroke-dasharray:7,7;"/><polygon fill="#181818" points="703.76,262.24,693.9127,262.0655,699.1557,264.1894,697.0318,269.4324,703.76,262.24" style="stroke:#181818;stroke-width:1;"/><text fill="#000000" font-family="sans-serif" font-size="13" lengthAdjust="spacing" textLength="61.1851" x="587.5" y="279.0669">&#171;extend&#187;</text></g><!--link PL to CI--><g class="link" data-entity-1="PL" data-entity-2="CI" data-source-line="58" data-uid="lnk28" id="link_PL_CI"><path d="M765.26,261.42 C780.4,266.72 798.8,272.94 815.5,278 C856.16,290.31 897.1711,301.087 930.7011,309.517" fill="none" id="PL-to-CI" style="stroke:#181818;stroke-width:1;stroke-dasharray:7,7;"/><polygon fill="#181818" points="936.52,310.98,928.7669,304.9063,931.6709,309.7609,926.8163,312.6648,936.52,310.98" style="stroke:#181818;stroke-width:1;"/><text fill="#000000" font-family="sans-serif" font-size="13" lengthAdjust="spacing" textLength="63.0068" x="816.5" y="274.0669">&#171;include&#187;</text></g><!--link PL to AD--><g class="link" data-entity-1="PL" data-entity-2="AD" data-source-line="59" data-uid="lnk29" id="link_PL_AD"><path d="M785.55,251.37 C795.49,251.6 805.82,251.82 815.5,252 C846.62,252.57 875.0304,252.9426 904.4104,253.2726" fill="none" id="PL-to-AD" style="stroke:#181818;stroke-width:1;stroke-dasharray:7,7;"/><polygon fill="#181818" points="910.41,253.34,901.4555,249.2392,905.4103,253.2838,901.3656,257.2387,910.41,253.34" style="stroke:#181818;stroke-width:1;"/><text fill="#000000" font-family="sans-serif" font-size="13" lengthAdjust="spacing" textLength="63.0068" x="816.5" y="248.0669">&#171;include&#187;</text></g><!--link PL to RE--><g class="link" data-entity-1="PL" data-entity-2="RE" data-source-line="60" data-uid="lnk30" id="link_PL_RE"><path d="M771.98,240.23 C818.24,228.47 889.6346,210.3369 936.2946,198.4869" fill="none" id="PL-to-RE" style="stroke:#181818;stroke-width:1;stroke-dasharray:7,7;"/><polygon fill="#181818" points="942.11,197.01,932.4023,195.3484,937.2638,198.2408,934.3715,203.1023,942.11,197.01" style="stroke:#181818;stroke-width:1;"/><text fill="#000000" font-family="sans-serif" font-size="13" lengthAdjust="spacing" textLength="63.0068" x="816.5" y="209.0669">&#171;include&#187;</text></g><!--link PL to NAV--><g class="link" data-entity-1="PL" data-entity-2="NAV" data-source-line="61" data-uid="lnk31" id="link_PL_NAV"><path d="M749.23,236.01 C765.1,222.42 790.74,201.86 815.5,188 C859.12,163.59 908.058,145.9465 942.458,134.8865" fill="none" id="PL-to-NAV" style="stroke:#181818;stroke-width:1;stroke-dasharray:7,7;"/><polygon fill="#181818" points="948.17,133.05,938.3776,131.9967,943.41,134.5804,940.8263,139.6127,948.17,133.05" style="stroke:#181818;stroke-width:1;"/><text fill="#000000" font-family="sans-serif" font-size="13" lengthAdjust="spacing" textLength="63.0068" x="816.5" y="155.0669">&#171;include&#187;</text></g><!--SRC=[VPHDRzim38Rl_XLSUjXb3H1qFVG31R8aA08KcP6clRCoRGkL9KzIcWR3_lieAMlip6WEIKo-8X-QhwsezE0DM5dL7WffINXfTEPUfMxHOWCjYbUiwD7l5K58ewuKTGIkniBifAwWHEMw6HJUs7GGT-HCqqrk7Gbq1BypW1_Sex9cgukPKSR2MJafot8ICiOMP5CqVCucGbozKFQdK-a3AjNgd3YxkFW-kRmSwY0koYlnmdMoI0cvmZtPB3iM6osSm9QkuMSDSq8BSukLqLz6iGry331wz6Wzh6W7zzZG2D31u-g-htcMdDvikPD45INFcvCgfBXrvF0rarPrgfGFokQoBANOAhzFgddMbuKoy41lb9hb3oTfvBz7t7o8TcKykOIwwgSNxpAQPYEzIWKMcvDfdlWhDzOVXdqwdQArKll3WEiJTjvGd77fgKa0isLVCNqpik2b-EJMg9dE-vereQWXeCRqUj5Fh_1DLkWJ_chw79pmzU0244RhLDfbXz3v-LtSQkUIDzYvublC1PPQg6qH7XI5yNmjMmUbDGtqRSBQgThXte4cAW2XCGNTy1FuRw-0ke3sw0P0Im6iaA4kAd324catpXWBncF6o-4QRczbGhYxEoRc9mbkldZtn0twdBmJ0qTli6nDRjiGI0U-9YYeH6O32WQ8GxL1VCDbi0Xl01qy4yc394G2jMaJyZXxNaMW_3u2KMHW7hRFOFnppW-BisnMa_Fk6nJ6MFvndb3v-XjZU8jnav44bU9IlxRydYk2WqkffUDR2ohK6GS7HDE66o-e8UtZC2xQzVznydH_yuS-zbC-66Qd3yO_jqrdJ3uOpi-M9-iynAVpuVXwCHndr_SJVm40]--></g></svg>